<?xml version="1.0" standalone="no"?><!DOCTYPE svg PUBLIC "-//W3C//DTD SVG 1.1//EN" "http://www.w3.org/Graphics/SVG/1.1/DTD/svg11.dtd"><svg t="1676700464036" class="icon" viewBox="0 0 1024 1024" version="1.1" xmlns="http://www.w3.org/2000/svg" p-id="2482" xmlns:xlink="http://www.w3.org/1999/xlink" width="32" height="32"><path d="M503.9 974.9c-129.8 0-246.4-39-328.2-109.8-12.3-10.6-13.6-29.2-3-41.5s29.2-13.6 41.5-3c71.1 61.6 173.9 95.5 289.6 95.5 228.4 0 387.9-128.6 387.9-312.6 0-203.6-179-452.4-387.9-452.4-208.9 0-387.9 248.7-387.9 452.4 0 58.9 15.5 112.2 46.2 158.3 9 13.5 5.3 31.8-8.2 40.8-13.5 9-31.8 5.3-40.8-8.2-37.2-55.9-56-120.2-56-190.9 0-231.6 199.3-511.2 446.8-511.2S950.7 372 950.7 603.5c0 218.6-183.8 371.4-446.8 371.4z" fill="#383F51" p-id="2483"></path><path d="M686.1 208.5c-5.3 0-10.8-1.5-15.6-4.5-13.8-8.6-17.9-26.8-9.3-40.6 15.2-24.3 36-45.2 60.1-60.7 13.7-8.8 31.9-4.8 40.7 8.9 8.8 13.7 4.8 31.9-8.9 40.7-16.8 10.8-31.3 25.5-42 42.4-5.7 8.9-15.2 13.8-25 13.8zM882.2 452.7c-12 0-23.3-7.4-27.7-19.4-5.6-15.3 2.3-32.2 17.6-37.7 53.7-19.5 89.7-71 89.7-128.3C961.9 192.1 901 131 826 131c-16.3 0-29.4-13.2-29.4-29.4s13.2-29.4 29.4-29.4c107.4 0 194.7 87.6 194.7 195.2 0 81.9-51.6 155.7-128.5 183.6-3.2 1.1-6.6 1.7-10 1.7zM127.4 448.1c-4 0-8.1-0.8-12-2.6C45.4 414.1 0.2 344.2 0.2 267.3 0.2 159.7 87.6 72.1 194.9 72.1c64.1 0 124 31.6 160.3 84.4 9.2 13.4 5.8 31.7-7.6 40.9-13.4 9.2-31.7 5.8-40.9-7.6C281.4 153 239.6 131 194.9 131 120 131 59.1 192.1 59.1 267.3c0 53.7 31.5 102.6 80.4 124.4 14.8 6.7 21.5 24.1 14.8 38.9-4.9 11-15.7 17.5-26.9 17.5zM510.5 456.5c-16.3 0-29.4-13.2-29.4-29.4V121.6c0-16.3 13.2-29.4 29.4-29.4 16.3 0 29.4 13.2 29.4 29.4V427c0 16.3-13.2 29.5-29.4 29.5z" fill="#383F51" p-id="2484"></path><path d="M660.7 311.8c-7.5 0-15.1-2.9-20.8-8.7-115.7-116.1-256-11.9-261.9-7.4-12.9 9.8-31.4 7.3-41.3-5.6-9.8-12.9-7.3-31.4 5.6-41.3 64.3-48.8 217.8-109 339.2 12.7 11.5 11.5 11.5 30.2-0.1 41.6-5.6 5.8-13.1 8.7-20.7 8.7z" fill="#383F51" p-id="2485"></path><path d="M660.7 425.1c-7.5 0-15.1-2.9-20.8-8.7-115.7-116.1-256-11.9-261.9-7.4-12.9 9.8-31.4 7.3-41.3-5.6-9.8-12.9-7.3-31.4 5.6-41.3 64.3-48.8 217.8-109 339.2 12.7 11.5 11.5 11.5 30.2-0.1 41.6-5.6 5.8-13.1 8.7-20.7 8.7z" fill="#383F51" p-id="2486"></path><path d="M285.1 548.6a45.1 45.2 0 1 0 90.2 0 45.1 45.2 0 1 0-90.2 0Z" fill="#383F51" p-id="2487"></path><path d="M645.7 548.6a45.1 45.2 0 1 0 90.2 0 45.1 45.2 0 1 0-90.2 0Z" fill="#383F51" p-id="2488"></path><path d="M510.5 782.6c-8.1 0-14.7-6.6-14.7-14.7v-32.2c0-19.5 7.6-37.8 21.3-51.6l29.8-29.9c5.7-5.7 15.1-5.8 20.8 0 5.8 5.7 5.8 15.1 0 20.8l-29.8 29.9c-8.2 8.2-12.7 19.2-12.7 30.8v32.2c0 8.1-6.6 14.7-14.7 14.7z" fill="#383F51" p-id="2489"></path><path d="M510.5 782.6c-8.1 0-14.7-6.6-14.7-14.7v-32.2c0-11.7-4.5-22.6-12.7-30.8L453.2 675c-5.7-5.8-5.7-15.1 0-20.8 5.8-5.8 15.1-5.7 20.8 0l29.8 29.9c13.8 13.8 21.3 32.1 21.3 51.6v32.2c0.1 8.1-6.5 14.7-14.6 14.7z" fill="#383F51" p-id="2490"></path><path d="M506.4 792.5c-69.5 0-113.3-38-113.9-38.5-6.1-5.4-6.6-14.7-1.2-20.8 5.4-6 14.7-6.6 20.7-1.2 3.3 2.9 82.5 70.4 198.9-1.5 6.9-4.3 16-2.1 20.3 4.8 4.3 6.9 2.1 16-4.8 20.3-44.9 27.6-85.6 36.9-120 36.9z" fill="#383F51" p-id="2491"></path></svg>